<svg id="Layer_1" xmlns="http://www.w3.org/2000/svg" width="1600" height="501.3" viewBox="0 0 1600 501.3"><style>.st1{fill:#fff}</style><g opacity=".24"><path class="st1" d="M1457.6 342.7c-10.8 0-20.4-1.5-26.9-4.3-4.6-1.9-9.1-4.1-13.5-6.5-4.1-2.5-8-3-13-3.1h-1.4l.1-2.8h1.4c5.3.1 9.8.7 14.4 3.5 1.1.7 4.2 2.5 13.2 6.4 10.5 4.5 27.6 4.6 40.1 3.2 9-1 9.3-4.5 9.4-5.8 0-2.1-1.3-3.9-3.2-4.6-.7-.3-1.1-1.1-.8-1.8.2-.6.8-.9 1.4-.9 5.4.2 8.7-1.2 9.2-3.7.4-2.3-1-5.2-5-6.2-.8-.2-1.2-1-1-1.7.2-.6.7-1 1.3-1 2.2-.1 4.5-.6 6.5-1.6 1.3-.6 2-1.9 1.9-3.4-.2-3.1-4.3-5.4-9.9-5.5-.8 0-1.4-.6-1.4-1.4s.6-1.4 1.4-1.4c1.9-.1 3.6-.8 4.9-2.1.6-.7.9-1.7.8-2.6-.4-4.5-5.7-5.6-8.8-5.8-6.3-.4-15.7-.9-28-1.4-2.4-.1-3.9-.9-4.4-2.4-1.2-3.1 2.8-7.2 3.3-7.7 4.5-4.5 6.1-6.4 8.3-11.3 2.1-4.7 2.3-8.5.6-9.9-.7-.6-1.7-.9-2.7-.8-1.1.2-2 .8-2.7 1.6-4.5 6.7-11.3 16.1-18.7 22.4-6 5.2-13.2 7.2-16.3 7-2.6-.2-8.2-.8-8.5-.8l-1.4-.1.3-2.8 1.4.1c.1 0 5.8.6 8.4.8 2.2.2 8.7-1.5 14.2-6.3 7.1-6.1 13.8-15.3 18.2-21.9 1.1-1.5 2.8-2.5 4.6-2.8 1.7-.3 3.5.2 4.8 1.3 2.9 2.3 3 7.1.2 13.2-2.5 5.6-4.5 7.8-8.9 12.2-1.7 1.7-3 3.9-2.7 4.7.1.2.6.5 1.9.6 12.3.5 21.8 1 28 1.4 6.9.5 11.1 3.5 11.5 8.3.2 1.7-.3 3.4-1.5 4.7-.4.4-.8.8-1.3 1.2 4.1 1.3 6.7 3.9 7 7.2.2 2.5-1.1 4.8-3.3 6-1 .6-2.1 1-3.2 1.3 2.2 1.8 3.3 4.6 2.9 7.4-.3 1.6-1.6 5.1-8 5.9 1.1 1.4 1.7 3.2 1.6 5-.4 4.8-4.3 7.5-11.9 8.3-4.9.4-9.9.7-14.8.7zm-33.5-115.9c-6.5 0-13.1-3.6-15.5-8.5-3.3-6.6-2.2-15.3 2.7-20.1 3.3-3.2 7.7-4.9 12.2-4.7 2.8 0 5.5.5 8.1 1.5 7.5 2.8 11.8 10.7 10.1 18.5-1.5 7-6.2 11.3-14 12.9-1.2.2-2.4.3-3.6.4zm-.6-30.6c-3.8-.1-7.4 1.3-10.2 3.9-4 4-5 11.3-2.2 16.9 1.7 3.4 6.8 6.9 12.9 6.9 1 0 2-.1 3-.3 6.8-1.4 10.5-4.8 11.8-10.8 1.4-6.5-2.2-13-8.4-15.3-2.1-.8-4.5-1.3-6.9-1.3zm16.7-16.1h-.8c-5.5.1-10-4.3-10-9.7 0-2 .6-4 1.7-5.7 2.5-3.6 7.2-4.9 12.3-3.3 6.4 1.9 7.8 7.7 6.4 12.3-1.3 4-4.9 6.4-9.6 6.4zm-1.1-16.6c-2.2-.1-4.4.9-5.7 2.8-1.3 2.2-1.5 4.8-.5 7.1 1.3 2.4 3.9 3.9 6.6 3.9h.6c3.3 0 5.9-1.7 6.7-4.5 1-3.4.1-7.4-4.5-8.8-.9-.3-2-.5-3.2-.5zm-62.7 56.3c-.7 0-1.5-.1-2.2-.2-5.6-1-11-5.4-10.5-13.2.6-8.3 7.3-11.2 12.8-11.2h.9c3.4.1 6.7 1.5 9 4 2.3 2.6 3.4 6 3.2 9.4-.3 6.1-6.4 11.2-13.2 11.2zm.2-21.7c-4.5 0-9.5 2.3-10 8.6-.5 6.9 4.9 9.7 8.1 10.2.6.1 1.1.1 1.7.1 5.3 0 10.1-3.9 10.4-8.6.2-2.7-.7-5.3-2.5-7.3-1.8-1.9-4.4-3-7-3h-.7z"/><path class="st1" d="M1432.4 196.6l-2.7-.8 5.6-17.5 2.8.8zm83.9 38.8l-1.8-33.9-14.7-2.3c-4.6-.7-8-2.6-9.9-5.5s-2.6-7.1-1.6-12c1.9-8.9 2.9-13.2 4.2-19.2l1.2-5.2c1.9-8.6 7.9-13.2 16.3-12.4 23.8 2.2 39.1 4 59 6.5 11.5 1.4 14.6 10.2 13.9 17.3-.8 7.6-1.7 15.4-3.6 28.4-1.2 8-5.9 12.1-14.1 12.1-1.4 0-2.9-.1-4.3-.3-7.2-.9-21.9-3.2-25.8-3.8l-18.8 30.3zm-8.1-87.8c-6.1 0-10.3 3.6-11.8 10.3l-1.2 5.2c-1.3 5.9-2.3 10.2-4.2 19.1-.9 4.1-.5 7.4 1.1 9.8s4.2 3.7 8.1 4.3c9.2 1.5 15.9 2.5 15.9 2.5l1.1.2 1.4 27.2 15-24.2.9.1c.2 0 18.3 2.9 26.6 3.9 1.3.2 2.6.3 3.9.3 6.8 0 10.4-3.1 11.3-9.6 1.9-12.9 2.8-20.8 3.6-28.3.2-2.1.8-12.6-11.4-14.2-19.9-2.5-35.1-4.2-58.9-6.5-.4-.1-.9-.1-1.4-.1z"/><path class="st1" d="M1557 186.4c-1.1 0-2.3-.2-3.3-.7-2.2-.9-3.9-2.7-4.7-5-.9-2.3-.7-4.8.4-7 1.4-2.6 4.2-4.3 7.2-4.2 1 0 2 .2 3 .5 3.6 1.1 6.6 5.2 5 10.6-.9 3.3-4 5.8-7.6 5.8zm-.4-14c-2-.1-3.8 1-4.7 2.7-.7 1.5-.8 3.1-.2 4.7.5 1.5 1.6 2.7 3.1 3.4.7.3 1.5.5 2.3.5 2.3 0 4.4-1.6 4.9-3.8 1.1-3.6-.8-6.3-3.2-7.1-.8-.4-1.5-.5-2.2-.4zm-22.4 11.7c-.7 0-1.4-.1-2.2-.2-3.1-.8-5.6-3.2-6.4-6.3-.9-2.8-.2-5.8 1.7-7.9 1.6-1.6 3.7-2.6 6-2.6 2.6 0 5.1 1.1 6.9 3 2.7 2.9 2.9 7.4.5 10.6-1.4 2.1-3.9 3.4-6.5 3.4zm-.8-14.3c-1.5 0-3 .7-4 1.8-1.2 1.4-1.6 3.4-1 5.1.5 2.1 2.2 3.8 4.3 4.3.5.1 1 .2 1.5.2 1.8 0 3.4-.8 4.4-2.3 1.6-2.1 1.5-5.1-.3-7.1-1.3-1.2-3-1.9-4.9-2zm-21.8 9.9c-.6 0-1.2-.1-1.7-.2-4.3-1.3-6.7-5.9-5.4-10.2 1.1-3.3 5-5 8.2-5 1.5 0 2.9.4 4.1 1.2 3.4 2.4 3.7 7.3 2 10.5-1.3 2.4-4.6 3.7-7.2 3.7zm1.1-12.7c-2.2 0-4.9 1.2-5.6 3.1-.9 2.6.8 5.6 3.6 6.6.2.1.5.1.8.1 1.7 0 4-.9 4.7-2.3 1-1.8 1.2-5.4-1.1-6.9-.7-.4-1.5-.6-2.4-.6zm-108.9 166.4l-1.2-.1c-9.7-.8-21.5-2-21.6-2l-1.5-.1.3-1.5c.1-.3 5.9-34 7.4-52.8l.1-1.4 1.4.1c5.2.3 8.7.6 12.3.9 2.6.2 5.2.4 8.7.7l1.4.1-.1 1.4c-1 15.9-3.8 40.1-6.9 53.5l-.3 1.2zm-21-4.8c3.3.3 11.5 1.1 18.8 1.7 2.8-12.7 5.4-35 6.5-50.5-2.8-.2-5.1-.4-7.3-.6-3.3-.3-6.4-.5-10.9-.8-1.5 16.8-6 43.6-7.1 50.2zm175.2 20.9c-12.8 0-19.5-8.5-20.9-14.2-4.4-17.9-6.7-32.1-8.6-44.9-2-13.6 4.8-22.4 19-24.7 1.9-.3 3.7-.5 5.6-.5 11.8 0 20 6.3 22.2 16.8 3.1 15.2 3.9 19.7 7.2 42.2 1.9 13.3-4.5 22-18.3 24.7-2.1.4-4.1.6-6.2.6zm-4.9-81.4c-1.7 0-3.5.1-5.2.4-12.8 2.1-18.4 9.4-16.7 21.5 1.8 12.7 4.2 26.9 8.5 44.6 1.2 4.9 7 12.1 18.2 12.1 1.9 0 3.8-.2 5.7-.6 8.5-1.6 18.2-6.7 16-21.5-3.3-22.4-4.1-26.9-7.1-42-1.8-9.1-9.1-14.6-19.4-14.5z"/><path class="st1" d="M1536.6 322.8l-.6-2.8c18.6-4.1 42.3-9.5 42.5-9.6l.6 2.8c-.2.1-23.9 5.6-42.5 9.6zm-4.1-24.1l-2.4-1.5c1.3-2.1 18.2-30.8 18.4-31.1l2.4 1.4c-.7 1.2-17.1 29-18.4 31.2zm1.9 11.4l-2.4-1.5c5-8.3 25.5-42.2 25.5-42.2l2.4 1.5s-20.5 33.9-25.5 42.2z"/><path class="st1" d="M1537 321.8l-2.4-1.4c7.6-12.8 29.4-50.5 29.6-50.8l2.4 1.4c-.2.3-22 38-29.6 50.8zm10.9-2l-2.5-1.3c1.4-2.5 23.3-42.1 24.2-43.8l2.5 1.4c-.2.3-22.8 41.2-24.2 43.7zm11.1-2.9l-2.4-1.4c2.5-4.2 16.5-30.2 16.6-30.5l2.5 1.3c-.5 1.1-14.1 26.3-16.7 30.6zm10.2-2.1l-2.4-1.4c4.3-7.5 8.8-15.3 8.8-15.4l2.5 1.4c-.1.1-4.5 8-8.9 15.4z"/><path class="st1" d="M1575.8 298.6c-4-2.5-41.1-23-41.5-23.2l1.4-2.5c1.5.8 37.5 20.7 41.6 23.2l-1.5 2.5zm1.9 11c-5.5-2.5-46.1-27-47.8-28l1.4-2.4c.4.2 42.2 25.4 47.6 27.9l-1.2 2.5zm-7.5 5.5c-1.9-1.2-40.1-24.8-41.7-25.8l1.5-2.4c.4.2 39.8 24.6 41.7 25.8l-1.5 2.4zm-13.1 2.8c-2.1-1.4-25.6-16.5-25.9-16.7l1.5-2.4c.2.1 23.7 15.3 25.8 16.6l-1.4 2.5z"/><path transform="rotate(-55.07 1539.39 314.94)" class="st1" d="M1538.1 307.4h2.8v15h-2.8z"/><path transform="rotate(-60.613 1562.801 284.745)" class="st1" d="M1561.4 266.7h2.8v35.9h-2.8z"/><path class="st1" d="M1523.3 315.2c-2.8 0-5.2-2.4-5.5-4.4-.3-2.7.6-6.1 4.3-7 .5-.1 1.1-.2 1.7-.2 3.2 0 5.1 2.5 5.5 5.1.6 3.6-2.6 6-5 6.5h-1zm.5-8.9c-.3 0-.7 0-1 .1-2.4.6-2.3 3.2-2.2 3.9.4 1.1 1.5 1.9 2.7 2h.4c.8-.2 3.2-1.3 2.8-3.3 0-.4-.5-2.6-2.7-2.7zm63.2-3.9c-2.8-.1-5.2-2.1-5.9-4.8-.4-1.8.1-3.7 1.2-5.2 2.2-2.4 5.9-2.6 8.3-.5 1 .9 1.7 2.2 1.9 3.5.4 2.7-.6 6.1-4.6 6.9-.3 0-.6.1-.9.1zm-.1-9.2c-.9 0-1.8.3-2.4 1-.6.9-.8 2-.5 3 .5 1.5 2 2.4 3.5 2.3 2.4-.5 2.5-2.5 2.3-3.7-.3-1.4-1.5-2.5-2.9-2.6z"/><path transform="rotate(-11.304 1529.609 308.008)" class="st1" d="M1527.4 306.7h4v2.8h-4z"/><path transform="rotate(-8.15 1580.104 298.063)" class="st1" d="M1578.2 296.4h4.2v2.8h-4.2z"/><path class="st1" d="M1558.8 359.7c-12.8 0-25.8-7-29-16.6s-6.8-28-6.9-28.8l2.8-.5c0 .2 3.7 19.1 6.8 28.4 3 8.9 18.3 17.2 32.8 14 6.5-1.4 27.3-7.6 24.5-27.2-2.5-17.2-4.1-27.4-4.1-27.5l2.8-.4c0 .1 1.6 10.3 4.1 27.5 2.6 17.5-12.1 27.2-26.7 30.4-2.3.5-4.7.7-7.1.7z"/><path transform="rotate(-13.768 1567.751 362.186)" class="st1" d="M1566.2 357h2.8v10.3h-2.8z"/><path class="st1" d="M1555.5 383.3c-2.6.2-5-1.5-5.7-4-.7-1.7-.6-3.5.2-5.1.9-1.7 2.3-3 4.1-3.6 3.7-1.1 8.4-2.7 12.9-4.2s9.1-3 12.2-4c1.1-.3 2.3-.5 3.4-.5 3-.2 5.7 1.7 6.6 4.5 1.1 3.8-1.8 7.6-5.1 8.6l-7 2.1c-6.1 1.9-12.9 4-17.7 5.4-1.2.5-2.6.8-3.9.8zm27.2-18.5c-.9 0-1.8.2-2.6.4-3.2 1-7.5 2.4-12.2 3.9s-9.3 3.1-13 4.2c-1 .4-1.9 1.1-2.4 2.1-.4.9-.5 2-.1 2.9.3 1.4 1.7 2.3 3.1 2.1 1.1 0 2.2-.2 3.2-.5 4.8-1.4 11.7-3.5 17.7-5.4l7-2.1c2-.6 3.8-2.9 3.2-5.1-.5-1.6-1.9-2.5-3.9-2.5zm-13 106.6c-3.9 0-7.2-3.4-7.8-8.3-2.9-21.8-1.8-40.3 3.3-55 2.2-6.4 6-9.5 11.5-9.5.8 0 1.6.1 2.4.2 6.6.9 10.2 8.1 10.5 14.7.6 18-3.4 35.9-11.8 51.8-2.8 5.3-6.3 6.1-8.1 6.1zm7-70c-2.7 0-6.4.8-8.8 7.6-5 14.2-6 32.3-3.2 53.7.5 3.5 2.5 5.9 5 5.9 2 0 4.1-1.7 5.6-4.6 8.1-15.5 12.1-32.9 11.4-50.4-.2-5.4-3-11.3-8-12-.7-.2-1.4-.2-2-.2zm-10.4 95.4c-5.2 0-8.1-4.3-8.2-8.6-.2-6.1 3.8-9.6 7.7-9.8 6.4-.3 8.9 5.4 9 9 .1 5-2.5 8.4-7.2 9.4h-1.3zm-.1-15.6h-.4c-2 .1-5.1 2.1-5 6.9.1 2.9 2 5.9 5.4 5.9h.8c4-.8 4.8-4 4.8-6.5 0-.1-.3-6.3-5.6-6.3zm-226.5-91.8c-1.8 0-3.7-.2-5.5-.5-7.3-1.4-14-5.6-17.3-11-7.7-12.5-3.3-26.3 2.8-34.3 9.1-11.8 24.5-12.9 32.6-9.9 13.2 5 16.8 17.4 16 24-1.8 14.6-12.8 18.4-14.9 19-4.4 1.2-7.4.9-9.1-1s-1.6-5.5.4-10.1l.7-1.7c1.8-4.2 4.3-9.9 7.7-17l2.5 1.2c-3.4 7-5.9 12.7-7.7 16.9l-.7 1.7c-1.5 3.4-1.8 6.1-.8 7.1s3.1 1 6.2.1c2.6-.7 11.3-4.1 12.9-16.6.7-5.8-2.5-16.6-14.2-21-7.2-2.7-21.2-1.7-29.3 8.9-1.2 1.6-11.8 16.2-2.7 31.1 2.9 4.8 8.9 8.5 15.4 9.7 5.8 1.1 14.9.7 25-7l1.7 2.2c-8.1 6.5-15.7 8.2-21.7 8.2z"/><path class="st1" d="M1336.8 373.1c-1.7 0-3.4-.4-4.9-1.2-2.6-1.6-4.3-4.3-4.6-7.3-1-8 3.7-15.6 11.3-18.3 7.6-2.5 12.6 3 14.2 6.2l-2.5 1.3 1.3-.6-1.3.6c-.2-.3-3.7-7.1-10.8-4.8-6.4 2.3-10.3 8.7-9.4 15.4.2 2.1 1.4 4 3.2 5.2 2.4 1.4 5.8 1.1 10.1-.8l1.1 2.6c-2.4 1-5 1.6-7.7 1.7zm111.5 197.2c-.6 0-1.2-.4-1.4-1.1 0-.1-2.6-9.8-4.5-15.4-1.1-3.1-3.6-5.8-9.5-10.2-6.7-5-11.5-11-13.4-16.8-3.9-12-7.6-23.8-9.8-36.4-1-6-1.3-12.4 4.1-14.5 1.9-.8 4.1-.7 5.9.1 3.3 1.6 4.8 5.6 5.1 6.7 1.6 5 2.8 9.4 3.9 13.3 1.3 4.6 2.4 8.6 3.7 12.4 1.1 3.2 3.3 6 5.6 5.3 1.6-.5 1.7-3.3 1.7-3.8-.4-2-5.5-30.1-7.1-38.5-1-5.2-3.7-9-5.7-11.8l-.8-1.1c-2-3-4.1-5.6-6.3-8.4-1.6-2-3.3-4.1-5.1-6.6-1.6-2.1-6.4-8.5-.8-13.1 2.7-2.2 6.6-1.7 10.5 1.4 2.9 2.2 7.3 6.3 10.6 9.3 1.1 1 2.1 1.9 2.8 2.5 1.9 1.7 5.4 5.1 7 9.1 3.8 8.8 6.9 23.3 7.1 23.9.2.8-.3 1.5-1.1 1.7-.8.2-1.5-.3-1.7-1.1 0-.1-3.2-14.8-6.9-23.4-1.5-3.5-4.6-6.5-6.3-8.1-.7-.6-1.7-1.5-2.8-2.6-3.2-2.9-7.6-6.9-10.4-9.1-1-.8-4.6-3.3-7-1.4-1.7 1.4-2.9 3.6 1.3 9.2 1.8 2.4 3.4 4.5 5 6.5 2.2 2.8 4.3 5.5 6.4 8.5l.7 1c2.1 3 5.1 7.1 6.2 12.9 1.6 8.6 7.1 38.3 7.1 38.6v.2c.1 2-.6 5.7-3.6 6.7-3.6 1.2-7.3-1.7-9.1-7-1.3-3.9-2.4-7.9-3.7-12.5-1.1-3.9-2.3-8.3-3.8-13.3-.6-1.8-1.8-4.1-3.7-5-1.2-.5-2.5-.5-3.7 0-2.1.8-3.8 2.7-2.3 11.4 2.1 12.4 5.8 24.1 9.7 35.9 1 3.1 4 9.2 12.4 15.5 6.4 4.8 9.2 7.8 10.5 11.5 2 5.7 4.4 15.2 4.5 15.6.2.8-.2 1.5-1 1.7-.1.3-.2.3-.3.3zm18.3-94.2c-.6 0-1.2-.4-1.4-1-2.6-9.7-5.8-19.1-9.8-28.3-.3-.7 0-1.5.7-1.9.7-.3 1.5 0 1.8.7 4 9.3 7.3 18.9 9.9 28.7.2.8-.3 1.5-1 1.7 0 0-.1.1-.2.1zm13.6.8c-.6 0-1.2-.4-1.3-1-4.3-13.9-8.2-24.8-8.2-24.9-.3-.7.1-1.5.9-1.8.7-.3 1.5.1 1.8.9 0 .1 3.9 11.1 8.2 25 .3.7-.1 1.5-.9 1.8h-.5zm-145 104.1c-.1-.7-2.7-17.2-2.4-26.1.2-6.9.8-12.4 1.4-17.7.1-1.1.2-2.2.4-3.3l.1-.9c.7-5.1.4-10.4-.9-15.4-2.4-10.1-7.4-29.1-10-38.5-1.2-4.5-3.5-6.2-7.2-5.5-1.2.2-2.3.9-2.9 1.9-1.1 1.7-1.2 4.4-.4 7.7.9 3.7 1.9 8.5 3 14s2.4 11.5 3.8 17.9c1 4.6.8 6.9-.7 7.9-1.7 1.1-3.8-.5-4.5-1.1-4-3.1-7.3-7-9.8-11.4-.8-1.4-1-3-.7-4.6 1.4-6.1 3.8-12 7.1-17.4-.4-1.7-.7-3.3-1.1-4.7-1-4.2-.7-7.5.8-9.9 1.1-1.7 2.8-2.8 4.8-3.2 3.6-.7 8.4.1 10.4 7.5 2.6 9.4 7.6 28.5 10 38.5 1.4 5.3 1.8 10.9 1 16.3l-.1.9c-.1 1.1-.2 2.2-.4 3.3-.6 5.2-1.2 10.6-1.4 17.5-.3 8.7 2.3 25.4 2.3 25.6l-2.6.7zm-22.9-88.2c-2.3 4.4-4.1 9-5.2 13.8-.2.9-.1 1.8.4 2.6 2.3 4.1 5.3 7.7 9 10.6.4.3.8.6 1.2.8.1-.5.2-1.7-.5-4.7-1.5-6.5-2.7-12.6-3.8-18-.4-1.8-.7-3.5-1.1-5.1z"/><path class="st1" d="M1297.2 588.6c-.3-4.8-.9-9.5-1.9-14.1-.2-.8-.3-1.6-.5-2.5-1.1-5.4-2.4-12-4.2-15.5-3.3-6.5-5.3-10.4-7.7-14.8-1.4-2.6-2.9-5.5-4.9-9.3-4.7-8.9-2-15.5-.2-19.9.2-.4.3-.9.5-1.3 2.4-6.3 4.1-10 8.2-18.6 2.4-5.1 5.9-11.5 7.3-14 .7-1.2 1.5-2.3 2.5-3.3 3.8-4.1 7.8-8 12.6-12.2l1.9 2.1c-4.7 4.2-8.6 8-12.4 12.1-.8.8-1.5 1.8-2.1 2.8-1.4 2.5-4.9 8.8-7.2 13.8-4.1 8.6-5.7 12.2-8.1 18.4-.2.4-.3.9-.5 1.3-1.7 4.1-4 9.8.1 17.5 2 3.8 3.5 6.6 4.9 9.2 2.4 4.5 4.4 8.3 7.7 14.9 1.9 3.8 3.3 10.7 4.4 16.3.2.9.3 1.7.5 2.5 1.1 4.8 1.7 9.6 2 14.5l-2.9.1zm49-47.2l-24.6-101.5 176.4-41.4 22.5 104.6-22.3 5.6-.7-2.7 19.7-5-21.4-99.1L1325 442l23.3 96 71.5-15.6.6 2.8z"/><path class="st1" d="M1496.9 527l-.7-2.7s18.2-4.7 32.5-8.4c8.6-2.2 8.5-8.8 7.2-15-5.5-26.5-13.6-63.5-24.1-109.9-.6-2.4-1.8-5.7-4.6-7.4-2.1-1.3-4.8-1.5-8-.7-36.2 8.9-76.9 18.5-116.2 27.9-25.1 5.9-48.7 11.6-69.7 16.6-2.8.8-5.2 2.6-6.8 5-1.6 2.8-1.9 6.1-1 9.1 3.3 13.1 8.6 32.7 8.6 32.9l-2.7.7c-.1-.2-5.3-19.8-8.6-32.9-1.1-3.8-.6-7.8 1.3-11.2 1.9-3.1 5-5.4 8.5-6.3 21-5 44.6-10.7 69.7-16.6 39.3-9.3 80-19 116.2-27.9 4-1 7.4-.6 10.2 1.1 3.6 2.2 5.2 6.2 5.8 9.2 10.5 46.4 18.6 83.4 24.1 109.9.8 3.7 3.1 15.1-9.2 18.3-14.3 3.5-32.5 8.3-32.5 8.3zM1408 209.8l-18.2-1.2.2-2.6 18.2 1.2z"/><path transform="rotate(-59.33 1533.827 277.1)" class="st1" d="M1523.2 275.7h21.1v2.8h-21.1z"/><path transform="rotate(-61.05 1562.005 272.41)" class="st1" d="M1560.6 260.5h2.8v23.7h-2.8z"/><path class="st1" d="M1481.1 302.6c-1.1 0-2.5 0-3.8-.1-.8 0-1.4-.7-1.3-1.5.1-.8.7-1.4 1.5-1.3 2.3.1 5.4.1 5.5.1.8 0 1.4.6 1.4 1.4s-.6 1.4-1.4 1.4h-1.9zm1 13.3c-1.1 0-2.5 0-3.8-.1-.8 0-1.4-.7-1.3-1.5.1-.8.7-1.4 1.5-1.3 2.3.1 5.4.1 5.5.1.8 0 1.4.6 1.4 1.4s-.6 1.4-1.4 1.4h-1.9zm-3.4 12.9c-1.1 0-2.5 0-3.8-.1-.8 0-1.4-.7-1.3-1.5.1-.8.7-1.4 1.5-1.3 2.3.1 5.4.1 5.5.1.8 0 1.4.6 1.4 1.4 0 .8-.6 1.4-1.4 1.4h-1.9zm-82.1 26.3l4.7 3.5 2.1-6.2zm13.7-112l-6.6-2 6.2-6.6zm107.4 107.3l-3.9-4.8 8.1-2.9zm-31.2-87.5l-4.7-2.8-.6 7.9zm-10.5-53.8h-7l2.3 5.5zm111.4 31.6l-5.8 2.7-.4-7.5zm-49.2 138.1l-5.1-1.6 5-7.3zm49.1 103.8l7.1-2.6-7.1-7.4z"/><path class="st1" d="M1393.7 382.5c-.6.3-1.3 0-1.6-.6-.3-.6 0-1.3.6-1.6.6-.3 1.3 0 1.6.6.2.4.1.8-.1 1.2-.2.2-.4.3-.5.4zm-1.7-4.4c-.6.1-1.2-.4-1.3-1-.1-.6.4-1.2 1-1.3.6-.1 1.2.4 1.3 1 0 .3-.1.6-.2.8-.2.3-.5.5-.8.5zm-.2-4.7c-.6-.1-1.1-.7-1-1.3.1-.6.7-1.1 1.3-1 .6.1 1.1.7 1 1.3 0 .2-.1.4-.2.5-.3.4-.7.6-1.1.5zm.8-4.6c-.6-.2-.9-.9-.7-1.5.2-.6.9-.9 1.5-.7.6.2.9.9.7 1.5 0 .1-.1.2-.2.3-.2.4-.8.6-1.3.4zm1.7-4.4c-.6-.3-.8-1-.5-1.6.3-.6 1-.8 1.6-.5.6.3.8 1 .5 1.6 0 .1-.1.1-.1.1-.3.6-.9.7-1.5.4zm6.7-8c-.4.5-1.2.5-1.6.1-.5-.4-.5-1.2-.1-1.6.4-.5 1.2-.5 1.7-.1.4.4.5 1.1 0 1.6.1 0 0 0 0 0zm-4.4 3.9c-.5-.4-.7-1.1-.3-1.6.3-.6 1.1-.7 1.6-.4h.1c.5.4.7 1.1.3 1.6-.3.7-1 .8-1.7.4.1.1.1.1 0 0zm8.3-97.3c-.2-.6.1-1.3.7-1.5.6-.2 1.3.1 1.5.7.2.6-.1 1.3-.7 1.5-.1 0-.3.1-.4.1-.5 0-.9-.4-1.1-.8zm-1.2-4.8c-.1-.6.3-1.2.9-1.3h.1c.6-.1 1.2.3 1.3.9v.1c.1.6-.3 1.3-1 1.4h-.2c-.6 0-1-.5-1.1-1.1zm.8-3.7c-.7 0-1.2-.5-1.2-1.2 0-.6.5-1.2 1.2-1.2.6 0 1.2.5 1.2 1.2-.1.7-.6 1.2-1.2 1.2zm.2-4.7c-.6-.1-1.1-.7-.9-1.4.1-.6.7-1.1 1.4-.9.6.1 1.1.7.9 1.4-.1.6-.6 1-1.2 1l-.2-.1zm1.1-4.5c-.6-.2-.9-.9-.7-1.5.2-.6.9-.9 1.5-.7.6.2.9.9.7 1.5-.2.5-.6.8-1.1.8-.2-.1-.3-.1-.4-.1zm1.8-4.4c-.5-.4-.7-1.1-.3-1.6.4-.5 1.1-.7 1.6-.3.5.4.7 1.1.3 1.6-.2.3-.6.5-1 .5-.2 0-.4-.1-.6-.2zm50.7-25.1c-.6 0-1.2-.6-1.2-1.2s.6-1.2 1.2-1.1c.6 0 1.2.5 1.2 1.2 0 .5-.5 1.1-1.2 1.1zm3.6-1.4c-.1-.6.3-1.3.9-1.4.6-.1 1.3.3 1.4.9.1.6-.3 1.3-.9 1.4h-.2c-.6 0-1.1-.4-1.2-.9zm-8.5.7c-.6-.2-1-.8-.9-1.4.2-.6.8-1 1.4-.9.6.2 1 .8.9 1.4-.1.5-.6.9-1.1.9h-.3zm13-1.8c-.2-.6.1-1.3.7-1.5.6-.2 1.3.1 1.5.7.2.6-.1 1.3-.7 1.5-.1.1-.3.1-.4.1-.4-.1-.9-.4-1.1-.8zm4.4-1.9c-.4-.5-.3-1.2.3-1.6.5-.4 1.3-.3 1.6.3.4.5.3 1.2-.3 1.6-.2.1-.4.2-.7.2-.4-.1-.7-.2-.9-.5zm12 52.7c-.6-.4-.8-1.2-.5-1.8.2-.6.8-.9 1.4-.7.1 0 .1 0 .2.1.6.4.8 1.2.5 1.8-.2.4-.5.7-1 .8-.2-.1-.4-.1-.6-.2zm2.3-4.9c-.6-.4-.7-1.2-.4-1.9.2-.5.9-.8 1.4-.5.1 0 .1.1.2.1.6.4.7 1.2.4 1.9-.2.4-.6.6-1 .6-.2.1-.4 0-.6-.2zm2.6-4.5c-.5-.5-.6-1.3-.3-1.9.3-.5 1-.7 1.5-.4.1 0 .1.1.2.1.5.5.7 1.3.3 1.9-.2.4-.6.6-1 .6-.3-.1-.6-.2-.7-.3zm2.8-4.4c-.5-.5-.6-1.3-.1-1.9.3-.5 1-.6 1.5-.3.1 0 .1.1.2.1.5.5.6 1.3.1 1.9-.2.3-.5.5-.9.5-.3.1-.6 0-.8-.3zm3.1-4.1c-.5-.6-.5-1.4 0-1.9.4-.5 1-.5 1.5-.2l.2.2c.5.6.5 1.4 0 1.9-.2.2-.5.4-.8.4-.4 0-.7-.1-.9-.4zm3.5-3.6c-.4-.6-.3-1.4.2-1.9.5-.4 1.1-.3 1.5.1 0 .1.1.1.1.2.4.6.3 1.4-.2 1.9-.2.2-.4.3-.7.3-.4-.1-.7-.3-.9-.6zm3.8-3.1c-.3-.7-.1-1.4.5-1.8.5-.3 1.2-.1 1.5.5 0 .1.1.1.1.2.3.7.1 1.4-.5 1.8-.2.1-.3.1-.5.1-.5-.1-.9-.4-1.1-.8zm83.7 37.8c-.6-.3-.9-.9-.6-1.5.2-.6.9-.9 1.5-.6.6.2.9.9.7 1.5-.2.4-.6.7-1.1.7-.2 0-.3 0-.5-.1zm1.7-4.4c-.6-.2-1-.8-.8-1.5.2-.6.8-1 1.4-.8.6.2 1 .8.8 1.5-.1.5-.6.9-1.1.9-.1 0-.2-.1-.3-.1zm1.2-4.5c-.6-.1-1.1-.7-1-1.3v-.1c.1-.6.7-1.1 1.3-1 .6.1 1.1.7 1 1.3-.1.6-.6 1-1.2 1h-.1zm.6-4.7c-.6 0-1.1-.6-1.1-1.2s.6-1.1 1.2-1.1c.7 0 1.2.6 1.1 1.2 0 .6-.5 1.1-1.2 1.1zm-1.1-5.8c0-.6.5-1.2 1.1-1.2.6 0 1.2.4 1.2 1.1 0 .6-.5 1.2-1.1 1.2h-.1c-.6 0-1.1-.5-1.1-1.1zm-.5-4.5c-.1-.6.3-1.2 1-1.3.6-.1 1.2.3 1.3 1 .1.6-.3 1.3-1 1.4h-.2c-.6-.1-1.1-.6-1.1-1.1zm-1-4.5c-.2-.6.2-1.3.8-1.4.6-.2 1.3.2 1.4.8.2.6-.2 1.3-.8 1.4h-.3c-.5 0-1-.3-1.1-.8zm-1.5-4.4c-.2-.6.1-1.3.7-1.5.6-.2 1.3.1 1.5.7.2.6-.1 1.3-.7 1.5-.1.1-.3.1-.4.1-.5 0-.9-.3-1.1-.8zm-1.9-4c-.3-.6-.2-1.3.4-1.6.6-.3 1.3-.2 1.6.4.3.6.1 1.3-.4 1.6-.2.1-.4.2-.6.2-.4-.1-.8-.3-1-.6zm-94.8 119.2c-.6 0-1.2-.6-1.1-1.2 0-.6.6-1.2 1.2-1.1.7 0 1.2.6 1.2 1.2-.1.6-.6 1.1-1.3 1.1zm3.6-1.3c-.1-.6.4-1.2 1-1.3.6-.1 1.2.4 1.3 1 .1.6-.4 1.2-1 1.3h-.1c-.6.1-1.2-.4-1.2-1zm-8.4.9c-.6-.1-1.1-.7-1-1.3.1-.6.7-1.1 1.3-1 .6.1 1.1.7 1 1.3-.1.6-.6 1-1.2 1h-.1zm13-1.4c-.1-.6.3-1.2.9-1.4.6-.1 1.2.3 1.4.9.1.6-.3 1.2-.9 1.4h-.2c-.6 0-1-.4-1.2-.9zm-17.7.5c-.6-.1-1-.8-.9-1.4.2-.6.8-1 1.4-.9.6.2 1 .8.9 1.4-.1.5-.6.9-1.1.9h-.3zm22.3-1.6c-.2-.6.1-1.3.7-1.5.6-.2 1.3.1 1.5.7.2.6-.1 1.3-.7 1.5-.1 0-.3.1-.4.1-.5 0-.9-.4-1.1-.8zm-27 .2c-.6-.2-.9-.9-.7-1.5.2-.6.9-.9 1.5-.7.6.2.9.9.7 1.5-.2.5-.6.8-1.1.8-.1 0-.2 0-.4-.1zm31.4-1.8c-.3-.6 0-1.3.6-1.5.6-.3 1.3 0 1.5.6.3.6 0 1.3-.6 1.5-.1.1-.3.1-.5.1-.4-.1-.8-.3-1-.7zm-35.9.1c-.6-.3-.9-1-.6-1.5.3-.6 1-.9 1.6-.6.6.3.9 1 .6 1.5-.2.4-.6.7-1.1.7-.1 0-.3-.1-.5-.1zm40.1-2.2c-.3-.6-.2-1.3.4-1.6.6-.3 1.3-.2 1.6.4.3.6.1 1.3-.4 1.6-.2.1-.4.2-.6.2-.4-.1-.7-.3-1-.6zm4-2.5c-.4-.5-.3-1.3.2-1.6.5-.4 1.2-.3 1.6.2.4.5.3 1.3-.2 1.6-.2.2-.4.2-.7.2-.3.1-.6-.1-.9-.4zm3.7-2.9c-.5-.5-.5-1.2 0-1.7s1.2-.5 1.7 0 .5 1.2 0 1.7c-.2.2-.5.4-.9.4-.3-.1-.5-.2-.8-.4zm36.8 73.7c-.5-.4-.7-1.1-.4-1.6.3-.5 1.1-.7 1.6-.4.5.3.7 1.1.4 1.6-.2.3-.6.5-1 .5-.2.1-.4 0-.6-.1zm-4-2.7c-.5-.4-.6-1.1-.2-1.7.4-.5 1.1-.6 1.7-.2.5.4.6 1.1.2 1.6-.2.3-.6.5-.9.5-.3 0-.5-.1-.8-.2zm-3.6-3.2c-.5-.5-.5-1.2 0-1.7s1.2-.5 1.7 0 .5 1.2 0 1.7c-.2.2-.5.4-.9.4-.3 0-.6-.1-.8-.4zm-3.3-3.5c-.4-.5-.4-1.2.1-1.7.5-.4 1.2-.4 1.7.1.4.5.4 1.2-.1 1.6-.2.2-.5.3-.8.3-.4.2-.7 0-.9-.3zm-2.9-3.8c-.4-.5-.2-1.3.3-1.6.5-.4 1.3-.2 1.6.3.4.5.2 1.3-.3 1.6-.2.1-.4.2-.7.2-.3 0-.7-.2-.9-.5zm-2.4-4.3c-.3-.6 0-1.3.6-1.6.6-.3 1.3 0 1.6.5.3.6 0 1.3-.6 1.6-.2.1-.3.1-.5.1-.5.1-.9-.2-1.1-.6zm-1.8-4.5c-.2-.6.1-1.3.7-1.5.6-.2 1.3.1 1.5.8.2.6-.1 1.3-.7 1.5-.1 0-.2.1-.4.1-.5-.1-1-.4-1.1-.9zm-1.2-4.7c-.1-.6.3-1.3.9-1.4.6-.1 1.3.3 1.4.9.1.6-.3 1.3-.9 1.4h-.2c-.6.1-1.1-.3-1.2-.9zm-.6-4.8c0-.6.4-1.2 1.1-1.2.6 0 1.2.4 1.3 1.1.1.6-.4 1.2-1.1 1.2h-.1c-.7 0-1.2-.5-1.2-1.1zm1-3.6c-.6 0-1.1-.6-1.1-1.2 0-.7.6-1.2 1.2-1.1.6 0 1.1.6 1.1 1.2s-.5 1.1-1.2 1.1zm.4-4.7c-.6-.1-1.1-.7-1-1.3.1-.6.7-1.1 1.3-1 .6.1 1.1.7 1 1.3-.1.6-.6 1-1.2 1h-.1zm.9-4.6c-.6-.2-.9-.9-.7-1.5.2-.6.9-.9 1.5-.7.6.2.9.9.7 1.5-.2.5-.6.8-1.1.8-.1 0-.3 0-.4-.1zm-189.9 116.4l-11.2-49 44.6-9.8 12 48.8-45.4 10zm-7.8-46.9l9.9 43.5 39.8-8.8-10.7-43.3-39 8.6zm48.9 2.6l-3.3-15.5 108.9-25.3 3.8 15.9-66.3 15-.6-2.8 63.4-14.3-2.4-10.4-103.5 24 2.2 10.1 25.6-5.4.6 2.7zm111.6 53.4l-.7-2.8 11.1-2.6-2.1-10.4-9.1 2.5-.8-2.7 12.1-3.3 3.2 16z"/><path transform="rotate(-12.698 1405.333 451.12)" class="st1" d="M1390.3 449.6h29.5v2.8h-29.5z"/><path transform="rotate(-12.691 1466.125 437.388)" class="st1" d="M1435.7 436h61.2v2.8h-61.2z"/><path transform="rotate(-12.698 1409.233 458.601)" class="st1" d="M1392.1 457.1h33.7v2.8h-33.7z"/><path transform="rotate(-12.657 1490.867 443.475)" class="st1" d="M1476.2 441.8h28.9v2.8h-28.9z"/><path transform="rotate(-12.698 1412.506 466.205)" class="st1" d="M1393.9 464.7h36.6v2.8h-36.6z"/><path transform="rotate(-12.691 1491.504 448.37)" class="st1" d="M1483.3 447h16.7v2.8h-16.7z"/><path transform="rotate(-12.698 1415.274 473.94)" class="st1" d="M1395.7 472.5h38.4v2.8h-38.4z"/><path transform="rotate(-12.691 1493.937 456.175)" class="st1" d="M1486.3 454.8h15.6v2.8h-15.6z"/><path class="st1" d="M1350.2 516l-4.2-18.9 63.7-13.6.6 2.8-60.9 12.9 2.9 13.5 61-12.7.5 2.8zm145.3-32.9l-.6-2.8 9.9-2.1-2.7-13.3-11.5 2.6-.7-2.7 14.4-3.3 3.8 18.9z"/><path transform="rotate(-13.409 1429.246 481.077)" class="st1" d="M1422.8 479.6h12.7v2.8h-12.7z"/><path transform="rotate(-11.601 1432.936 496.282)" class="st1" d="M1427.2 494.9h11.7v2.8h-11.7z"/><path transform="rotate(-9.46 1434.042 501.188)" class="st1" d="M1429.9 499.9h8.9v2.8h-8.9z"/><path class="st1" d="M1494.6 557.2c-.2-.5-3.7-13.2-2.2-21.1 1.9-9.9 3.9-25.3 4.1-33.9 0-7-.9-14-2.9-20.8-1.9-7.2-11.5-30.7-11.9-31.7-.7-1.8-2.4-3.1-4.4-3.1-1.8.1-3.1 1.6-3.9 4.2l-1.1 4-1.6-3.9c-2.6-6.4-4.1-7.2-4.7-7.5-.8-.4-3.2-1.2-5.2-.4-1.4.8-2.3 2.1-2.6 3.7l-.9 3.6-1.7-3.2c-1.5-3-4.8-4.7-8.1-4.1-2.9.5-4.7 2.9-4.7 6.5h-2.8c0-5 2.8-8.6 7.1-9.3 3.5-.7 7.1.5 9.4 3.2.7-1.3 1.8-2.3 3.1-2.9 2.5-.9 5.2-.8 7.6.4 1.3.6 2.8 1.9 4.8 6 1.1-1.8 3-3 5.1-3.1 3.2 0 6 1.9 7.2 4.9.4 1 10.1 24.7 12.1 32 2 7 3 14.3 3 21.5-.2 8.7-2.2 24.3-4.1 34.3-1.4 7.2 2.1 19.7 2.2 19.8l-2.9.9zm-84.7-144.8c.1 1.2-.8 2.2-2 2.3-1.2.1-2.2-.7-2.3-1.9v-.2c-.2-1.2.7-2.3 1.9-2.5h.3c1.2 0 2.1.9 2.2 2-.1.1-.1.2-.1.3zM108.1 509.3L82.8 473c-3.9.7-7.8 1-11.7 1.1-8.2 0-13.3-2.2-19.9-6.6-4 4.7-11.4 6.8-17.3 6.8-2.4 0-4.8-.4-7-1.1-8.5-3.2-13.7-9.1-15.8-18.2-2-8.7-1.1-16 2.8-21.6 5.1-7.4 13.9-10 18.6-10.8-2.1-25.1 17.7-38.7 31.8-41.7 2.8-.6 5.6-.9 8.5-.9 8.5-.1 16.8 3.1 23.1 8.9 4.3-4.6 10.4-7.1 16.7-7 3.9 0 7.7.8 11.3 2.2 10.4 4.1 16.4 15.8 15 28.9-1.2 11.1-10.9 21.8-21.5 24.1 0 17.2-14.4 27.6-18.3 30.1l9 42.1zm-24-39.3l18.4 26.3-6.5-30.6.9-.5c.2-.1 18.5-10.8 17.7-29.3v-1.3l1.2-.2c9.8-1.5 19.3-11.7 20.4-21.9 1.3-11.9-4-22.3-13.2-26-3.3-1.3-6.7-2-10.2-2-6-.2-11.8 2.4-15.7 7.1l-1 1.2-1.1-1.2c-5.8-5.9-13.8-9.2-22.1-9.1-2.7 0-5.3.3-7.9.9-13.3 2.9-32.1 15.9-29.5 40l.2 1.4-1.3.2c-3.8.5-13 2.6-18 9.8-3.4 5-4.2 11.5-2.4 19.4 1.9 8.1 6.4 13.4 14 16.2 1.9.7 4 1 6 1 6.6 0 13.1-2.8 15.8-6.7l.8-1.2 1.2.8c6.8 4.6 11.5 6.8 19.4 6.8 4.1-.1 8.1-.5 12.1-1.2l.8.1z"/><path class="st1" d="M55.3 447.7c-3.5.2-6.5-2.6-6.7-6.1-.2-3.5 2.6-6.5 6.1-6.7 3.5-.2 6.5 2.6 6.7 6.1v.3c.1 3.5-2.7 6.4-6.1 6.4zm0-10c-2-.2-3.7 1.3-3.9 3.3-.2 2 1.3 3.7 3.3 3.9 2 .2 3.7-1.3 3.9-3.3v-.3c.1-1.8-1.4-3.5-3.3-3.6 0 .1 0 .1 0 0zm19.5 2.1c-5.8.1-10.6-4.6-10.7-10.4s4.6-10.6 10.4-10.7c5.8-.1 10.6 4.6 10.7 10.4v.1c0 5.9-4.6 10.6-10.4 10.6zm0-18.2c-4.3-.1-7.8 3.3-7.8 7.5-.1 4.3 3.3 7.8 7.5 7.8 4.3.1 7.8-3.3 7.8-7.5v-.1c.1-4.2-3.2-7.7-7.5-7.7zm21.8 5.3c-3.9.1-7.1-3-7.1-6.8-.1-3.9 3-7.1 6.8-7.1 3.9-.1 7.1 3 7.1 6.8v.1c.1 3.8-3 6.9-6.8 7zm0-11.2c-2.3-.1-4.3 1.7-4.4 4-.1 2.3 1.7 4.3 4 4.4 2.3.1 4.3-1.7 4.4-4v-.2c0-2.3-1.8-4.1-4-4.2zM276.2 310c-11.3 0-22.6-3.3-33.5-9.7l-3.8-2.2 4.4-.4c7.9-.7 13.4-3.1 16.6-7.2-1.6.2-3.3.3-4.9.3-8.9 0-25.1-3.2-33.2-24.7l-1.2-3.1 3.1 1.4c.5.2.9.4 1.4.6 5.8 2.1 11.9 3.2 18.1 3.2 9.8 0 18.5-2.6 24.1-7.2-2.2-5-3.6-12.4-1.2-19.4 1.7-5.2 5.5-9.4 10.4-11.8 3.9-2 8.2-3 12.6-3.1h.3c7 0 13.4 2.8 19 8.3 3.4-1.8 6.3-4.3 8.5-7.4l1.8-2.8.8 3.2c.9 3.8-.1 9.5-2.2 13.4 3.4.5 6.6 2 9.2 4.2l2.4 2-3.1.4c-3.6.5-5.4 1.1-7.6 3 1.4 2.6 4.6 10.1 3.7 21.3-.8 10-4 24.2-22.3 32.7-7.4 3.3-15.4 5-23.4 5zm-28.4-10.1c8.7 4.7 18.5 7.2 28.4 7.3 7.6 0 15.2-1.6 22.1-4.8 13-6.1 19.4-15.4 20.6-30.4 1.1-13-3.8-20.5-3.9-20.6l-.7-1 .9-.8c1.8-1.8 4.1-3.1 6.6-3.8-2.2-1.1-4.7-1.8-7.2-2l-2.5-.3 1.6-2c1.8-2.3 3-6.3 3.2-9.7-2.4 2.5-5.2 4.5-8.3 6l-.9.4-.7-.7c-5.3-5.4-11.2-8.2-17.7-8.2h-.2c-4 .1-7.9 1.1-11.4 2.9-4.3 2-7.5 5.7-9 10.1-2.2 6.7-.6 14 1.5 18.3l.5 1-.8.7c-6 5.5-15.7 8.6-26.8 8.6-5.9 0-11.8-.9-17.5-2.8 7.8 17.2 21.6 19.9 29.3 19.9 2.5 0 5-.3 7.5-.8l2.9-.7-1.4 2.6c-2.7 5.8-8.1 9.3-16.1 10.8zm-46.6 203.7l-8.7-.8c-11.4-1.1-24.3-2.3-34.2-3.4l-1.4-.2.2-1.4c4.3-31.7 10.8-77.4 14.7-102.7l.2-1.3 1.3.1c12.7 1.1 27 2.5 40.8 3.8l12.2 1.2 1.4.1-.2 1.4c-1.7 15.2-8.1 69.2-10.3 87.6l-2.8-.3c2.1-17.8 8.2-69.2 10.1-86.1l-10.8-1.1c-13.4-1.3-27.2-2.7-39.5-3.7-3.9 25.1-10 68.8-14.3 99.9 9.7 1.1 21.9 2.2 32.8 3.2l8.7.8-.2 2.9z"/><path class="st1" d="M152.6 497.2l-2.8-.4c.1-.8 10.4-77 14.4-104.9v-.1c.6-3.9 1.8-12.1 14.5-11 6.7.6 15.9 1.3 24.8 2 7.8.6 15.1 1.2 19.8 1.6 2.1.2 7.4 1 10.5 5 2 2.5 2.8 5.8 2.2 9.7-1.6 12-10.5 82.7-10.6 83.4l-2.8-.4c.1-.7 9-71.4 10.6-83.4.4-3.1-.1-5.7-1.6-7.6-2.4-3-6.8-3.7-8.5-3.9-4.6-.4-12-1-19.8-1.6-8.9-.7-18.2-1.4-24.9-2-10.1-.9-10.9 4.6-11.4 8.6v.1c-4 27.9-14.3 104.1-14.4 104.9zm-14.2-141.1c-5.6 0-11.1-.9-16.3-2.7-17.7-6.4-29.9-19-33.4-34.7-4-17.9 1.1-35.4 14.8-50.6 10-11.1 26-15 37.6-15 2.2 0 4.5.1 6.7.4 20.8 2.9 34.3 12.9 41.1 30.6 9.5 24.6-.5 47.6-13.8 58.4-10.2 8.6-23.2 13.4-36.7 13.6zm2.8-100.3c-11 0-26.2 3.7-35.5 14.1-13.3 14.7-18 30.9-14.2 48.1 3.3 14.7 14.8 26.6 31.6 32.7 4.9 1.7 10.1 2.6 15.4 2.6 12.8-.2 25.2-4.7 35-12.9 12.5-10.2 21.9-31.9 12.9-55.2-6.4-16.7-19.1-26.1-38.8-28.9-2.2-.4-4.3-.5-6.4-.5zm91.1-40.4l-39.9-21.6c-2.7.5-15.8 3.2-28.1 5.8-2.2.5-4.4.8-6.6.8-7 0-11.7-3.6-13.4-10.5-2.5-9.7-3.4-13.8-4.3-17.9-.4-2-.9-4.1-1.6-6.8-2.2-9.2 1.5-15.7 10.1-17.8l16.8-4.1c14.7-3.6 33-8 46.8-11.2 2.4-.6 4.9-1 7.4-1 6.6 0 11.2 3.3 13.6 9.8 3.9 10.4 5.5 16 7.9 24.5l.1.5c.5 1.7 1.9 7.7-.8 12.4-1.5 2.6-4.1 4.4-7.1 5.1-9.9 2.5-17 4.1-20.3 4.8l19.4 27.2zm-39.4-24.6l30.2 16.4-14.8-20.9 2.1-.4c.1 0 8.4-1.8 22.3-5.3 2.2-.4 4.1-1.8 5.3-3.7 2.2-3.8 1-8.8.6-10.2l-.1-.5c-2.4-8.4-4-13.9-7.9-24.3-2-5.3-5.6-7.9-11-7.9-2.3.1-4.6.4-6.8 1-13.9 3.2-32.1 7.7-46.8 11.2l-16.8 4.1c-7.1 1.7-9.8 6.6-8 14.4.6 2.8 1.1 4.8 1.6 6.9.9 4 1.8 8.2 4.3 17.8 1.4 5.6 5 8.3 10.7 8.3 2 0 4-.3 6-.8 13.8-2.9 28.5-5.9 28.6-5.9l.5-.2zm174.8 197c-4.6.1-9-1.9-12-5.5-3.4-4-4.8-9.3-4.1-14.5 1.6-10 9.5-13.6 15.8-13.6 1.1 0 2.1.1 3.1.3 11.9 2.4 14.7 11.6 13.5 18.9-1.6 9-7.6 13.1-12.7 14.1-1.2.2-2.4.3-3.6.3zm-.3-30.7c-5.4 0-11.6 3-13 11.2-.7 4.4.6 8.8 3.4 12.2 2.4 2.9 6.1 4.6 9.9 4.5 1 0 2.1-.1 3.1-.3 1.4-.3 8.7-2.1 10.4-11.8 1.1-6.2-1.3-13.6-11.2-15.6-.9-.2-1.8-.2-2.6-.2zM328 415.8c-4.5 0-8.5-2.9-9.9-7.1-1.2-3.9 1-10.3 5.5-12.3 1.5-.7 3.1-1 4.8-1.1 4.4 0 8.3 2.9 9.5 7.1 1.5 6.3-1.9 11.1-6 12.6-1.2.5-2.6.8-3.9.8zm.4-17.7c-1.2 0-2.5.3-3.6.8-3.1 1.4-4.8 6.1-3.9 8.9 1.1 3.1 3.9 5.1 7.2 5.1 1 0 2-.2 2.9-.6 2.4-.9 5.4-4.1 4.2-9.3-1-2.9-3.7-4.9-6.8-4.9zm-18.8-56.7c-2.2.1-4.3-.8-5.8-2.3-1.8-1.8-2.7-4.4-2.5-6.9.2-2.4 1.4-4.5 3.3-5.9 1.7-1.3 3.7-2 5.7-2 2.7 0 5.2 1.3 6.8 3.5 2 2.8 2.3 6.4.9 9.5-1.3 2.3-4.9 4.1-8.4 4.1zm.7-14.4c-1.5 0-2.9.5-4.1 1.5-1.3.9-2.1 2.4-2.2 3.9-.1 1.8.5 3.5 1.8 4.7 1 1 2.4 1.5 3.8 1.5 2.6 0 5.2-1.4 5.9-2.7.9-2.2.6-4.6-.7-6.5-1.1-1.5-2.7-2.4-4.5-2.4z"/><path transform="rotate(-40.389 344.935 389.552)" class="st1" d="M330.3 388.2h29.3v2.8h-29.3z"/><path transform="rotate(-58.62 336.333 348.469)" class="st1" d="M334.9 325.5h2.8v45.9h-2.8z"/><path class="st1" d="M207.1 512.4c-2.5-.1-4.8-1.3-6.2-3.3-3.3-4.3.2-10.2 2.8-12.3 6-5 11.4-9.5 18.7-15.2 2.1-1.8 4.6-2.9 7.4-3 2.5 0 4.8 1.2 6.4 3.1l.1.2c2.7 3.8 1.9 9-1.8 11.9-6.9 5.6-14.4 11.3-20.9 16.2-1.8 1.3-4.1 2.2-6.5 2.4zm22.7-31c-2.1.2-4.1 1-5.6 2.4-7.3 5.7-12.7 10.2-18.7 15.1-1.6 1.3-4.5 5.6-2.3 8.5s5.2 2.9 8.8.2c6.5-4.9 14-10.5 20.8-16.1 2.5-1.9 3.1-5.4 1.2-8-1-1.3-2.5-2.1-4.2-2.1z"/><path class="st1" d="M209.7 528.6c-2.4.1-4.7-1-6.2-2.9-1.5-1.7-2.2-3.9-1.9-6.2.4-2.6 1.9-4.9 3.9-6.4 2.9-2.2 6.9-5.3 10.6-8.2 3.9-3.1 7.6-6 9.5-7.4 1.6-1.1 3.4-1.7 5.4-1.7 2.5-.1 4.8 1 6.4 2.8 4.1 5.2-.8 11.3-3 13.2l-1.5 1.3c-5.9 5.1-9.5 8.2-15.1 12.5-2.3 1.8-5.1 2.9-8.1 3zm21.2-30.1c-1.3 0-2.6.4-3.6 1.1-1.9 1.4-5.6 4.3-9.5 7.4-3.7 2.9-7.7 6-10.6 8.3-1.5 1.1-2.5 2.7-2.9 4.5-.1 1.5.3 2.9 1.3 4 1 1.2 2.4 1.9 4 1.9 2.3-.1 4.5-.9 6.3-2.4 5.5-4.3 9.1-7.4 15-12.5l1.5-1.3c1.6-1.3 5.4-5.9 2.6-9.3-.9-1.1-2.5-1.8-4.1-1.7zm-5.3-21.3l-.8-2.7c.1 0 12.2-3.6 15.3-5 2.8-1.2 4.3-4.3 3.3-7.2-.3-1.2-1-2.2-2.1-2.8-1.5-.8-3.6-.8-6.1 0-5.3 1.7-7.5 2.4-7.5 2.4l-.9-2.7s2.2-.7 7.5-2.4c3.3-1 6.1-1 8.3.2 1.7 1 3 2.6 3.4 4.6 1.3 4.2-.8 8.7-4.9 10.5-3.1 1.4-15 4.9-15.5 5.1zm2.8-22.1l-1.7-2.2c.1-.1 10.1-8 13.9-11.4 1.3-1.2 4.6-5.4 2-9-.8-1.3-2.1-2.2-3.6-2.5-2.6-.4-5.4 1.2-7.3 2.7l-1.6-2.3c2.4-1.8 5.9-3.8 9.5-3.2 2.2.4 4.2 1.7 5.5 3.6 3.7 5.3-.5 11-2.5 12.7-4.1 3.6-13.8 11.3-14.2 11.6zm111.5 11.3c-4.5 0-10-4.5-13.2-10.9-1.5-3-2.8-7.8-1.6-11.7 1.5-4.7 6.4-7.5 11.2-6.5 6.1 1.3 7.7 5.5 8.8 8.3 3.5 9.1 1.6 14.8.6 16.8-.7 1.7-2.1 3.1-3.9 3.8-.6.1-1.2.2-1.9.2zm-5.4-26.5c-3 0-5.7 1.9-6.7 4.8-.9 2.9.1 7 1.4 9.6 2.7 5.3 7.3 9.3 10.7 9.3.4 0 .7 0 1.1-.1 1-.5 1.8-1.3 2.2-2.3 1.7-3.5 1.5-8.9-.7-14.5-1-2.7-2.1-5.6-6.8-6.6-.4-.1-.8-.2-1.2-.2z"/><path class="st1" d="M326.4 490.4h-3.2l-.2-1.1c-2.2-12.9 3.9-19.8 8.8-23.8l1.2-1 .9 1.3c2.6 3.9 4.6 4.8 8.1 3.9 2.6-.7 4.1-2 4.8-7.1l.2-1.2h1.2c10.4.1 17.2 6.1 20.3 17.9l.3 1.1-1 .5c-11.4 6.1-26.2 9.5-41.4 9.5zm-.7-2.9c14.6.1 28.7-3 39.9-8.7-2.8-9.3-8-14.1-16.1-14.6-.8 4.1-2.4 7-6.7 8.1-.9.3-1.9.4-2.9.4-3.4 0-5.6-1.9-7.3-4.2-4.2 3.8-8.2 9.4-6.9 19zm-25.3-19c-3.6 0-8.4-3.5-10.8-11.5-2.3-7.5 2.5-10.2 4.7-11 .7-.3 1.4-.4 2.1-.4 1.3 0 5.9.5 8.3 7.2 4.5 12.4-2 15.1-2.8 15.4-.5.2-1 .3-1.5.3zm-4-20c-.4 0-.8.1-1.1.2-3.2 1.2-4.2 3.7-3 7.6 2.2 7 6 9.5 8.1 9.5.2 0 .4 0 .6-.1 1.8-.6 4-3.9 1.1-11.8-1.9-5.1-4.9-5.5-5.7-5.4z"/><path class="st1" d="M286.7 489.7l-.3-1.3c-2-7.8 1.3-15.9 8.1-20.2l1.1-.7.8 1c1.4 1.9 2.5 2.2 3.3 2.2.9-.1 1.8-.2 2.6-.5 2.8-.9 3.4-4.7 3.4-4.8l.1-1.1 1.1-.1c.9-.1 1.9-.2 2.9-.2 4.9 0 9.4 1.5 11.6 3.7l.7.7-.4.9c-1.3 2.6-1.9 6.1-2.5 10.2l-.2 1.1-.6.3c-5.8 2.9-19 7-30.2 8.6l-1.5.2zm8.3-18.3c-4.8 3.5-7.1 9.4-6.1 15.2 10.2-1.6 21.8-5.1 27.4-7.8.4-3.3 1.2-6.5 2.3-9.6-1.9-1.4-5.3-2.2-8.8-2.2-.5 0-1 0-1.5.1-.5 1.7-1.7 5-5.1 6-1.1.4-2.3.6-3.5.7-1.8-.2-3.5-1-4.7-2.4zm77.6-18.7c-2.3 0-4.5-1.3-6.6-3.9-2.8-3.5-4.6-7.6-5.3-12-.5-2.5.2-5.1 1.8-7.1 1.6-1.9 4-2.9 6.5-2.9 3.4 0 6.4 1.9 7.9 4.9 2.1 3.8 3 8.2 2.6 12.5-.4 5.1-2 6.8-4.3 7.9-.8.4-1.7.6-2.6.6zm-3.6-23.1c-1.7 0-3.2.7-4.3 1.9-1.1 1.3-1.5 3.1-1.2 4.8.6 3.9 2.2 7.6 4.7 10.7 2.1 2.6 4 3.5 5.9 2.6 1.1-.5 2.4-1.1 2.7-5.6.3-3.8-.5-7.6-2.3-11-1.1-2.1-3.2-3.4-5.5-3.4z"/><path class="st1" d="M368.8 471.2l-.4-.9c-2.6-5.8-4.9-7.5-9.4-9.9l-1.3-.7.7-1.2c2-3.2 4.9-5.7 8.4-7l1.3-.5.5 1.3c1.4 3.3 3.3 3.6 4.6 3.6.9 0 1.8-.2 2.6-.5 2.1-.7 4.2-2.7 3.4-5.9l-.4-1.5 1.6-.2c.7-.1 1.4-.1 2.1-.1 7.5 0 14.3 5.2 17 12.9l.4 1.1-1 .6c-8.9 5.3-18.9 8.5-29.2 9.1l-.9-.2zm-7.1-12.5c3.9 2.1 7.1 5.5 8.8 9.6 9.2-.7 18.1-3.4 26-8-2.6-6.1-8.2-10.1-14.2-9.9.2 3.4-1.8 6.4-5.5 7.6-1.1.4-2.4.6-3.6.7-2.8 0-5.3-1.5-6.5-4-2 .9-3.7 2.2-5 4zM27.8 359.3c-4.3-.2-7.6-3.7-7.6-8-.2-3.9 2.8-7.1 6.7-7.3h1.4c2.7.3 6.7 3.2 6.7 7.6 0 4.1-3.1 7.5-7.2 7.7zm-.4-12.5c-2.3-.1-4.3 1.6-4.4 3.9v.6c0 2.7 2 5 4.8 5.2 2.5-.2 4.4-2.4 4.3-4.9 0-2.8-2.7-4.6-4.2-4.8h-.5z"/><path class="st1" d="M47.1 350.8c-1.1 0-2.2-.5-3-1.4a5.48 5.48 0 01-1.4-4.4c.6-7.5-2.1-12-7.9-13.7-1.2-.4-2.5-.5-3.8-.6-3.5 0-6.6 1.7-10.6 5.8-1.5 1.5-2.9 2.3-4.3 2.3-1.3 0-2.4-.7-3-1.9-.9-1.8-.7-3.9.5-5.6 3.5-5.1 10.1-10.6 18.3-10.6 2.5 0 4.9.5 7.2 1.4 7.7 3 14.6 11.6 12.6 23.9-.9 3.5-2.9 4.8-4.6 4.8zM31 328c1.5 0 3.1.2 4.5.7 7.2 2 10.7 7.7 10 16.6-.1.8.1 1.6.6 2.2.2.3.6.5.9.5.8 0 1.5-.9 1.8-2.4 1.7-10.6-4.2-18.1-10.9-20.7-2-.8-4-1.2-6.2-1.2-7.1 0-12.9 4.8-16 9.4-.5.8-.7 1.8-.3 2.7.1.2.3.4.5.4s1-.1 2.3-1.4c4.7-4.9 8.5-6.8 12.8-6.8z"/><path class="st1" d="M64.7 342.4c-2.4 0-5.1-1.6-5.7-6.1-1.4-11.7-7.2-19-17.5-22.3-3.4-1.2-7-1.9-10.6-1.9-8.2 0-12.6 4.3-17.7 9.3l-.4.4c-1.2 1.3-2.9 2.1-4.7 2.2-1.7 0-3.3-.8-4.2-2.2-1.7-2.4-1.3-6.1 1.1-9 7-8.9 16.1-13.4 26.9-13.4 4.5 0 8.9.7 13.2 2 14.3 4.2 22.9 15.3 25.4 32.9.4 2.5-.5 6.9-4.4 8-.5 0-.9.1-1.4.1zm-33.9-33.2c3.9.1 7.8.8 11.5 2.1 11.4 3.7 17.9 12 19.5 24.7.3 2.3 1.3 3.6 2.9 3.6.2 0 .4 0 .6-.1 2.2-.6 2.6-3.6 2.4-4.9-2.4-16.6-10-26.6-23.4-30.6-15.5-4.5-28.1-1-37.1 10.4-1.6 2-2 4.3-1 5.7.4.6 1.1 1 1.9 1 1-.1 2-.6 2.7-1.4l.4-.4c5.1-4.9 10.3-10.1 19.6-10.1zM68 204.7c-3.6 0-7.7-2-9.3-4.5-2.4-3.6-2.9-8.6-1.3-11.7 1.8-3.6 5.3-6 9.2-6.5 3.4-.4 6.8.9 9.1 3.4 2.9 3.4 3.1 6.7 2.6 10.7-.6 4.4-4.1 7.8-8.9 8.5-.5.1-1 .1-1.4.1zm-.2-20c-.3 0-.6 0-.9.1-3.1.3-5.8 2.2-7.2 5-1 1.9-.8 5.8 1.2 8.8 1 1.6 4.2 3.3 7.1 3.3.3 0 .6 0 .9-.1 2.7-.4 6.1-2.3 6.6-6.1s.1-6.1-1.9-8.4c-1.5-1.7-3.6-2.6-5.8-2.6zm-25 21.7c-3.3 0-6.4-1.6-7.7-4.1-1.8-3.4-1.8-7.3.1-10 1.6-2.5 4.2-4.1 7.2-4.2 1.2 0 2.4.3 3.5.7 3.8 1.5 5.1 5.8 5.1 9 0 4-2 7.1-5.2 8.1-1 .4-2 .5-3 .5zm-.4-15.4c-2.1.1-3.9 1.2-5 3-1.2 1.8-1.2 4.6.1 7 1.2 1.7 3.2 2.7 5.3 2.6.7 0 1.5-.1 2.2-.3 2-.6 3.3-2.7 3.3-5.4 0-2.3-.9-5.3-3.4-6.3-.8-.4-1.6-.6-2.5-.6zM93 203c-3.3-.1-6.3-2-7.8-4.9-1.7-3-1.7-8.6-.1-10.9 1.7-2.5 4.5-4 7.5-4.1.8 0 1.5.1 2.3.3 4 1.1 6.4 4.6 6.8 9.5.4 5.4-2.3 9-7.5 10-.4 0-.8.1-1.2.1zm-.4-17.1c-2.1.1-4.1 1.1-5.3 2.9-.8 1.2-1.1 5.6.2 7.9 1.6 2.8 4.4 3.8 6.2 3.4 3.9-.8 5.6-3 5.3-7-.2-2.1-1-5.9-4.8-7-.5-.2-1-.2-1.6-.2zm70.6-4.3c-2.2 0-4.2-1.4-4.8-3.6-.9-2.6.5-5.5 3.2-6.3.2-.1.3-.1.5-.1l50-11.7c2.7-.6 5.4 1.1 6 3.8.3 1.2.1 2.5-.6 3.6-.7 1.2-1.8 2-3.1 2.3l-49.9 11.9c-.5 0-.9.1-1.3.1zm49.9-19c-.2 0-.3 0-.5.1l-49.9 11.7c-1.2.3-1.9 1.5-1.7 2.7v.1c.3 1.1 1.5 1.8 2.7 1.6l49.9-11.9c1.1-.3 1.8-1.4 1.6-2.6v-.1c-.3-.9-1.1-1.6-2.1-1.6zm-52.6 4.9c-3.3.4-6.3-2-6.6-5.3s2-6.3 5.3-6.6l48.3-11c3.1-.7 6.3 1.2 7 4.4s-1.2 6.3-4.4 7l-48.2 11.4c-.5 0-1 .1-1.4.1zm48.2-20.3c-.2 0-.4 0-.7.1l-48.3 11c-1.7.4-2.8 2.1-2.4 3.8v.1c.4 1.7 2.1 2.8 3.8 2.4l48.2-11.4c1.6-.4 2.6-2 2.2-3.6 0-.1 0-.1-.1-.2-.2-1.3-1.4-2.2-2.7-2.2zM88.9 308.4l-.8-2.7c38-10.8 40.7-50.3 40.7-50.7l2.8.2c0 .3-2.8 41.9-42.7 53.2zm27.7 41.6l-1.5-2.4c51.1-32.1 58.4-81.1 58.4-81.6l2.8.4c-.1.5-7.4 50.7-59.7 83.6z"/><path class="st1" d="M97.2 332.6l-2.6-1.1c22-52 76.2-68.8 76.7-69l.8 2.7c-.6.2-53.4 16.6-74.9 67.4z"/><path class="st1" d="M190.9 305.4c-41.9-12.9-34.8-48.6-34.8-49l2.8.6c-.3 1.4-6.6 33.6 32.8 45.7l-.8 2.7zM130 354.1c-.6-48.6-36.5-68.5-36.9-68.7l1.3-2.5c.4.2 37.8 21 38.4 71.2H130z"/><path class="st1" d="M156.4 351.2c0-.5-3.5-46.1 31.9-63.1l1.2 2.5c-33.7 16.1-30.4 59.9-30.4 60.3l-2.7.3z"/><path class="st1" d="M106.8 343.6l-1.9-2.1c39.5-36 83.2-21.9 83.7-21.8l-.9 2.7c-.5 0-42.6-13.6-80.9 21.2zm.9-64.4c-3.2 0-6.5-.2-9.7-.7l.4-2.8c35.7 5.1 53-20.4 53.1-20.7l2.4 1.5c-.2.3-15.3 22.7-46.2 22.7z"/><path class="st1" d="M178.1 337.8c-37.8-31.9-32.9-83.3-32.8-83.8l2.8.3c-.1.5-4.8 50.5 31.8 81.4l-1.8 2.1z"/><circle class="st1" cx="109.3" cy="296.1" r="3"/><circle class="st1" cx="114.3" cy="302.6" r="3"/><circle class="st1" cx="127.1" cy="327.5" r="3"/><circle class="st1" cx="130.3" cy="338.4" r="3"/><circle class="st1" cx="162.9" cy="317.8" r="3"/><circle class="st1" cx="157.1" cy="308.1" r="3"/><circle class="st1" cx="147.4" cy="275.3" r="3"/><circle class="st1" cx="124.7" cy="275.5" r="3"/><circle class="st1" cx="146.7" cy="262.8" r="3"/><circle class="st1" cx="157.7" cy="269.6" r="3"/><circle class="st1" cx="167.6" cy="289.7" r="3"/><circle class="st1" cx="177" cy="297.8" r="3"/><path class="st1" d="M58.7 260.4l-6.5-3.2 7-5.8zm153.4-18.7l-7.1.2 3.1-8.3zm-1.8 57.7l-.1 6.9-7.6-3.2zM92.2 357.1l3.2 5.9 4.4-6.3zm112.7-25.9l-3.8 5-3.6-6.2zm48.2-8.9l-6.8-2.3 5.9-5.9zm64.4 43.8l2 6.8 6-5.7z"/><path class="st1" d="M191.2 265.9c-.2-.6.1-1.3.7-1.5.6-.2 1.3.1 1.5.7.2.6-.1 1.3-.7 1.5-.1 0-.3.1-.4.1-.5 0-1-.3-1.1-.8zm4.3-1.7c-.3-.6-.1-1.3.5-1.6.6-.3 1.3-.1 1.6.5.3.6.1 1.3-.5 1.6-.2.1-.4.1-.6.1-.4 0-.8-.2-1-.6zm4-2.4c-.4-.5-.4-1.2.1-1.7.5-.4 1.2-.4 1.7.1.4.5.4 1.2-.1 1.7-.2.2-.5.3-.8.3-.3 0-.6-.2-.9-.4zm3.4-3.3c-.5-.4-.6-1.1-.2-1.7.4-.5 1.1-.6 1.6-.2.5.4.6 1.1.2 1.6-.2.3-.6.5-.9.5-.2.1-.4 0-.7-.2zm2.7-3.9c-.6-.3-.9-.9-.6-1.5.3-.6 1-.9 1.6-.6.6.3.8 1 .6 1.6-.2.4-.6.7-1.1.7-.2-.1-.4-.1-.5-.2zm1.7-4.4c-.6-.1-1-.8-.9-1.4.1-.6.8-1 1.4-.9.6.1 1 .8.9 1.4-.1.5-.6.9-1.1.9-.1.1-.2.1-.3 0zm.9-4.6c-.6 0-1.1-.6-1.1-1.2s.6-1.1 1.2-1.1 1.1.6 1.1 1.2c0 .7-.5 1.1-1.2 1.1zm-1.3-5.7c-.1-.6.3-1.2 1-1.3.6-.1 1.2.3 1.3 1 .1.6-.4 1.3-1 1.4h-.2c-.5-.1-1-.5-1.1-1.1zM59.3 292.8c-.4-.5-.4-1.2.1-1.7.5-.4 1.2-.4 1.7.1.4.5.4 1.2-.1 1.7-.2.2-.5.3-.8.3-.4 0-.7-.2-.9-.4zm-3-3.9c-.3-.5-.2-1.3.3-1.6.6-.3 1.3-.2 1.6.4.3.5.2 1.3-.4 1.6-.2.1-.4.2-.6.2-.3-.1-.7-.3-.9-.6zm-2.3-4.4c-.3-.6 0-1.3.6-1.5.6-.3 1.3 0 1.5.6.3.6 0 1.3-.6 1.5-.1.1-.3.1-.5.1-.4 0-.8-.2-1-.7zm-1.5-4.6c-.2-.6.2-1.3.9-1.4.6-.2 1.3.2 1.4.9.2.6-.2 1.3-.9 1.4h-.3c-.5 0-1-.4-1.1-.9zm-.8-4.8c-.1-.6.4-1.2 1.1-1.3.6-.1 1.2.4 1.3 1.1.1.6-.4 1.2-1 1.3H53c-.7 0-1.3-.5-1.3-1.1zm1-3.6c-.6 0-1.2-.6-1.1-1.2 0-.6.6-1.1 1.2-1.1.7 0 1.2.5 1.2 1.2v.1c-.1.5-.6 1-1.3 1zm.3-4.7c-.6-.1-1.1-.7-1-1.3v-.1c.1-.6.7-1.1 1.3-1 .6.1 1.1.7 1 1.3-.1.6-.6 1-1.2 1H53zm1-4.6c-.6-.2-1-.8-.8-1.5.2-.6.8-1 1.4-.8.6.2 1 .8.8 1.5-.1.5-.6.8-1.1.9-.1-.1-.2-.1-.3-.1zm1.4-4.5c-.6-.3-.8-1-.6-1.6.3-.6 1-.8 1.6-.6.6.3.8 1 .6 1.6-.2.4-.6.7-1.1.7-.2 0-.4-.1-.5-.1zM81 363c0-.6.5-1.2 1.1-1.2.6 0 1.2.5 1.2 1.1 0 .6-.5 1.2-1.1 1.2-.6 0-1.2-.5-1.2-1.1zm-3.7.8c-.6-.1-1.1-.7-1-1.3.1-.6.7-1.1 1.3-1 .6.1 1.1.7 1 1.3-.1.6-.6 1-1.2 1h-.1zm8.4-1.2c-.1-.6.3-1.3.9-1.4.6-.1 1.3.3 1.4.9.1.6-.3 1.3-.9 1.4h-.2c-.6.1-1.1-.3-1.2-.9zm-13.2 0c-.6-.2-.9-.9-.7-1.5.2-.6.9-.9 1.5-.7.6.2.9.9.7 1.5-.2.5-.6.8-1.1.8-.1 0-.3-.1-.4-.1zm17.7-1.1c-.2-.6.1-1.3.7-1.5.6-.2 1.3.1 1.5.7.2.6-.1 1.3-.7 1.5-.1 0-.3.1-.4.1-.5 0-.9-.3-1.1-.8zm4.4-1.8c-.4-.5-.2-1.3.3-1.6.5-.4 1.3-.2 1.6.3.4.5.2 1.3-.3 1.6-.2.1-.4.2-.6.2-.4.1-.8-.1-1-.5zm118.8 17.2c-.6-.1-1-.8-.9-1.4.1-.6.8-1 1.4-.9.6.1 1 .8.9 1.4-.1.5-.6.9-1.1.9h-.3zm.9-4.6c-.6-.1-1.1-.7-1-1.3.1-.6.7-1.1 1.3-1 .6.1 1.1.7 1 1.3-.1.6-.6 1-1.2 1h-.1zm.6-4.7c-.6 0-1.1-.6-1.1-1.2s.6-1.1 1.2-1.1 1.1.6 1.1 1.2-.6 1.1-1.2 1.1zm-1-5.8c0-.6.5-1.2 1.1-1.2.6 0 1.2.5 1.2 1.1 0 .6-.5 1.2-1.1 1.2-.7 0-1.2-.5-1.2-1.1zm-.4-4.6c-.1-.6.4-1.2 1-1.3.6-.1 1.2.4 1.3 1 .1.6-.4 1.2-1 1.3h-.1c-.6 0-1.1-.4-1.2-1zm-.8-4.5c-.2-.6.2-1.3.9-1.4.6-.2 1.3.2 1.4.9.2.6-.2 1.3-.9 1.4h-.3c-.5 0-1-.4-1.1-.9zm-1.3-4.3c-.2-.6.1-1.3.7-1.5.6-.2 1.3.1 1.5.7.2.6-.1 1.3-.7 1.5-.1 0-.3.1-.4.1-.5-.1-.9-.4-1.1-.8zm-1.9-4.2c-.3-.6-.1-1.3.5-1.6.6-.3 1.3-.1 1.6.5.3.6.1 1.3-.5 1.6-.2.1-.4.1-.5.1-.4 0-.9-.2-1.1-.6zm-2.3-3.9c-.4-.5-.2-1.3.3-1.6.5-.4 1.3-.2 1.6.3.4.5.2 1.3-.3 1.6-.2.1-.4.2-.7.2-.3 0-.7-.2-.9-.5zm-2.8-3.5c-.4-.5-.4-1.2 0-1.6.5-.4 1.2-.4 1.7.1.4.5.4 1.2-.1 1.7-.2.2-.5.3-.8.3-.3-.1-.6-.3-.8-.5zm-3.3-3c-.5-.4-.7-1.1-.3-1.6.4-.5 1.1-.7 1.6-.3.5.4.7 1.1.3 1.6-.2.3-.6.5-1 .5-.2 0-.4-.1-.6-.2zm11.3-29.9c-.6 0-1.2-.5-1.2-1.1-.1-.6.4-1.2 1.1-1.2.6 0 1.2.5 1.2 1.1 0 .5-.5 1.1-1.1 1.2zm-4.9-.1c-.6-.1-1.1-.7-1-1.3.1-.6.7-1.1 1.3-1 .6.1 1.1.7 1 1.3-.1.6-.6 1-1.2 1h-.1zm8.3-1.5c-.1-.6.3-1.3.9-1.4.6-.1 1.3.3 1.4.9.1.6-.3 1.2-.9 1.4h-.2c-.6.1-1.1-.3-1.2-.9zm4.6-1c-.2-.6.1-1.3.7-1.5.6-.2 1.3.1 1.5.7.2.6-.1 1.3-.7 1.5-.1 0-.3.1-.4.1-.5-.1-.9-.4-1.1-.8zm4.4-1.9c-.3-.6-.2-1.3.4-1.6.6-.3 1.3-.2 1.6.4.3.5.2 1.3-.4 1.6-.2.1-.4.2-.6.2-.5 0-.8-.2-1-.6zm3.8-2.6c-.5-.4-.5-1.2 0-1.6.5-.5 1.2-.5 1.7 0s.5 1.2 0 1.7c-.2.2-.5.3-.8.3-.3-.1-.6-.2-.9-.4zm3.2-3.5c-.6-.3-.7-1.1-.4-1.6.3-.6 1.1-.7 1.6-.4.6.3.7 1.1.4 1.6-.2.3-.6.6-1 .6-.2 0-.4-.1-.6-.2zm52 70.5c-.7 0-1.2-.5-1.2-1.2 0-.6.5-1.2 1.2-1.2.6 0 1.2.5 1.2 1.2s-.6 1.2-1.2 1.2zm3.5-1.3c-.1-.6.4-1.2 1.1-1.3.6 0 1.2.4 1.3 1.1 0 .6-.4 1.2-1.1 1.3h-.1c-.6 0-1.1-.4-1.2-1.1zm-8.3 1c-.6-.1-1.1-.6-1.1-1.3.1-.6.6-1.1 1.3-1.1.6.1 1.1.6 1.1 1.3 0 .6-.6 1.1-1.2 1.1h-.1zm13-1.5c-.1-.6.3-1.2 1-1.3.6-.1 1.2.3 1.3 1 .1.6-.3 1.2-1 1.3h-.2c-.5.1-1-.3-1.1-1zm-17.8.9c-.6-.1-1.1-.7-.9-1.4.1-.6.7-1.1 1.4-.9.6.1 1.1.7.9 1.4-.1.6-.6 1-1.1 1l-.3-.1zm22.5-1.7c-.1-.6.2-1.3.9-1.4.6-.1 1.3.2 1.4.9.1.6-.2 1.3-.9 1.4h-.3c-.5 0-1-.3-1.1-.9zm-27.1.5c-.6-.2-1-.9-.8-1.5.2-.6.9-1 1.5-.8.6.2 1 .9.8 1.5-.2.5-.6.8-1.1.8-.2.1-.3.1-.4 0zm31.6-1.6c-.2-.6.2-1.3.8-1.5.6-.2 1.3.2 1.5.8.2.6-.1 1.3-.7 1.5-.1 0-.2.1-.3.1-.7 0-1.1-.4-1.3-.9zM265 360c-.6-.3-.8-1-.5-1.6.3-.6 1-.8 1.6-.6.6.3.8 1 .6 1.6-.2.4-.6.7-1.1.7-.3 0-.4-.1-.6-.1zm40.7-1.3c-.2-.6 0-1.3.6-1.5.6-.2 1.3 0 1.5.6.2.6-.1 1.3-.7 1.5-.1.1-.3.1-.4.1-.4 0-.8-.3-1-.7zm-44.9-1.1c-.5-.4-.7-1.1-.3-1.6.4-.5 1.1-.7 1.6-.3.5.4.7 1.1.3 1.6-.2.3-.6.5-1 .5-.2 0-.4-.1-.6-.2zm49.2-.8c-.3-.6-.1-1.3.5-1.6.6-.3 1.3-.1 1.6.5.3.6.1 1.3-.5 1.6-.2.1-.4.1-.5.1-.5.1-.9-.2-1.1-.6zm4.1-2.3c-.4-.5-.3-1.3.2-1.7.5-.4 1.3-.3 1.6.2.4.5.3 1.3-.2 1.6-.2.2-.5.2-.7.2-.3.2-.7 0-.9-.3zm-57.1.1c-.5-.4-.5-1.2-.1-1.7s1.2-.5 1.7-.1.5 1.2.1 1.7c-.2.2-.5.4-.9.4-.3 0-.6-.1-.8-.3zm-3.4-3.6c-.4-.5-.3-1.2.2-1.6.5-.4 1.2-.3 1.6.2.4.5.3 1.2-.2 1.6-.2.2-.5.2-.7.2-.3 0-.6-.1-.9-.4zm-2.6-4.1c-.3-.6-.1-1.3.4-1.6.6-.3 1.3-.1 1.6.5.3.6.1 1.3-.5 1.6-.2.1-.4.1-.6.1-.3 0-.7-.2-.9-.6zm-2-4.5c-.2-.6.1-1.3.7-1.5.6-.2 1.3.1 1.5.7.2.6-.1 1.3-.7 1.5-.1 0-.3.1-.4.1-.5 0-.9-.4-1.1-.8zm-1.2-4.7c-.1-.6.3-1.2.9-1.4.6-.1 1.3.3 1.4.9.1.7-.3 1.3-1 1.4h-.2c-.6 0-1-.4-1.1-.9zm-.6-4.9c0-.6.5-1.2 1.1-1.2.6 0 1.2.5 1.2 1.1 0 .6-.5 1.2-1.1 1.2h-.1c-.5 0-1-.4-1.1-1.1zm1.2-3.5c-.6 0-1.1-.6-1.1-1.3 0-.6.6-1.1 1.3-1.1.6.1 1.1.6 1.1 1.3-.1.6-.6 1.1-1.3 1.1zm.5-4.7c-.6-.1-1.1-.7-.9-1.4.1-.6.7-1.1 1.4-.9.6.1 1.1.7.9 1.4-.1.6-.6 1-1.1 1l-.3-.1zm1-4.6c-.6-.2-.9-.9-.7-1.5.2-.6.9-.9 1.5-.7.6.2.9.9.7 1.5-.2.5-.6.8-1.1.8-.1 0-.2-.1-.4-.1zm50.3 118.7c-.4-.5-.4-1.2.1-1.7.5-.4 1.2-.4 1.7.1.4.5.4 1.2-.1 1.7-.2.2-.5.3-.8.3-.3 0-.7-.1-.9-.4zm-3-3.7c-.4-.5-.3-1.3.2-1.6.5-.4 1.3-.3 1.7.2.4.5.3 1.3-.2 1.7-.2.2-.5.2-.7.2-.4 0-.8-.2-1-.5zm-2.8-3.9c-.4-.5-.2-1.3.3-1.6.5-.4 1.3-.2 1.6.3.4.5.2 1.3-.3 1.6-.2.1-.4.2-.7.2-.3.1-.7-.1-.9-.5zm-2.5-4.1c-.3-.6-.1-1.3.5-1.6.6-.3 1.3-.1 1.6.4.3.6.1 1.3-.5 1.6-.2.1-.4.1-.6.1-.4.2-.8-.1-1-.5zm-2.1-4.3c-.3-.6 0-1.3.6-1.5.6-.3 1.3 0 1.5.6.3.6 0 1.3-.6 1.5-.1.1-.3.1-.5.1-.4 0-.8-.2-1-.7zm-1.7-4.5c-.2-.6.2-1.3.8-1.5.6-.2 1.3.2 1.5.8.2.6-.2 1.3-.8 1.5h-.3c-.5 0-1-.3-1.2-.8zm-1.1-4.7c-.1-.6.3-1.3 1-1.4.6-.1 1.2.3 1.3.9v.1c.1.6-.3 1.3-1 1.4h-.2c-.5 0-1-.4-1.1-1zm-.5-4.8c0-.6.5-1.2 1.1-1.2.6 0 1.2.5 1.2 1.1 0 .6-.5 1.2-1.1 1.2-.6 0-1.2-.5-1.2-1.1zm1.1-3.6c-.6 0-1.1-.6-1.1-1.2s.6-1.1 1.3-1.1c.6 0 1.1.6 1.1 1.3-.1.5-.6 1-1.3 1zm.5-4.7c-.6-.1-1.1-.7-.9-1.4.1-.6.7-1.1 1.4-.9.6.1 1.1.7.9 1.4-.1.6-.6 1-1.2 1 0-.1-.1-.1-.2-.1zm1-4.6c-.6-.2-1-.8-.8-1.5.2-.6.8-1 1.5-.8.6.2 1 .8.8 1.5-.1.5-.6.8-1.1.8-.2.1-.3 0-.4 0zm1.5-4.5c-.6-.3-.8-1-.6-1.6.3-.6 1-.8 1.6-.6.6.3.8 1 .6 1.6-.2.4-.6.7-1.1.7-.2 0-.4 0-.5-.1zm2.1-4.1c-.5-.4-.7-1.1-.3-1.6.4-.5 1.1-.7 1.6-.3.5.4.7 1.1.3 1.6-.2.3-.6.5-1 .5-.2 0-.4-.1-.6-.2zm2.8-3.8c-.5-.4-.5-1.2-.1-1.7s1.2-.5 1.6-.1c.5.4.5 1.2.1 1.7-.2.2-.5.4-.9.4-.2 0-.5-.1-.7-.3zm3.3-3.3c-.4-.5-.4-1.2.1-1.6.5-.4 1.2-.3 1.7.1.4.5.4 1.2-.1 1.7-.2.2-.5.3-.8.3-.3-.1-.6-.3-.9-.5zm3.7-3c-.4-.5-.2-1.3.3-1.6.5-.4 1.3-.2 1.6.3.4.5.2 1.3-.3 1.6-.2.1-.4.2-.7.2-.3 0-.6-.1-.9-.5zm4-2.5c-.3-.6-.1-1.3.5-1.6.6-.3 1.3-.1 1.6.5.3.6.1 1.3-.5 1.6-.2.1-.4.1-.6.1-.4 0-.8-.2-1-.6zm4.2-2.1c-.3-.6 0-1.3.6-1.5.6-.3 1.3 0 1.5.6.3.6 0 1.3-.6 1.5-.2.1-.3.1-.5.1-.4 0-.8-.3-1-.7zm4.3-1.9c-.2-.6.1-1.3.7-1.5.6-.2 1.3.1 1.5.7.2.6-.1 1.3-.7 1.5-.1 0-.3.1-.4.1-.5 0-.9-.3-1.1-.8zm4.5-1.5c-.2-.6.2-1.3.8-1.4.6-.1 1.3.2 1.4.9.1.6-.2 1.3-.9 1.4h-.3c-.4 0-.9-.4-1-.9zM87.8 260.5l-2.1-3.3s-12.4-19.2-17-26.4c-3.9.8-7.8 1.2-11.7 1.2-15.7 0-29.4-6.6-35.5-12.6-5.7-5.7-11.9-14.2-8.9-29.2 2.2-10.9 10.6-20.4 23.7-26.8 3.6-1.8 7.4-3.2 11.2-4.3 7.6-2.3 15.5-3.4 23.5-3.5 11.3-.1 22.5 2.8 32.4 8.3 13.5 7.4 18.1 21.1 17.9 31.4 0 2-.3 4.1-.8 6.1-5.1 19.2-24.6 24-29.4 24.9l-3.3 34.2zm-17.9-32.9l.5.8c3.1 4.9 11.5 17.8 15.4 23.9l2.6-28.5 1.1-.1c.2 0 22.9-3.1 28.2-23.1.4-1.8.7-3.6.7-5.4.4-11.9-6-23.1-16.4-28.8-9.5-5.3-20.2-8.1-31.1-8-7.7.1-15.4 1.2-22.7 3.4-3.7 1-7.3 2.4-10.8 4.1-12.3 6-20.2 14.8-22.2 24.8-2.7 13.6 2.6 21.1 8.1 26.6C29 223.1 42 229.2 57 229.2c4 0 8.1-.5 12-1.4l.9-.2zM129.4 566c-.8 0-1.4-.6-1.4-1.4 0-.2 0-.3.1-.5 0-.1 4.7-13.7 5.8-19 .8-4.9.3-9.9-1.3-14.5-2-5.9-4.2-11.1-5.8-14.9-.6-1.5-1.2-2.7-1.6-3.8-.1-.3-3.2-8.2-3-15.5.3-7.2 1-14.4 2-21.5.4-3.2 2.8-7.5 7-12.8 3.7-4.7 8.7-14.8 10.4-18.1l.2-.5c1.6-3.1 4.7-5.4 7.7-5.5 2.3-.1 6.3.7 7.1 6.9s1.2 11.2-1.8 17.2c-1.1 2.3-2.6 4.4-4.6 6-.3.2-.6.5-.8.8l-.4.4c-1.1 1.1-2.3 2.3-2.6 3.6-1.1 5.3-1.6 9.7-1.4 11.9.2 2.6 1.4 4.9 3.9 7.7.7.8 1.5 1.6 2.4 2.6 3.5 3.6 6.7 7.5 9.6 11.6 3.2 4.7 6.6 16.6 2.3 28.7-.3.7-1.1 1.1-1.8.9s-1.1-1.1-.9-1.8c4.1-11.5.4-22.6-2-26.2-2.8-4-6-7.8-9.4-11.4-1-1-1.8-1.9-2.5-2.7-2.9-3.3-4.2-6.1-4.6-9.3-.3-3.5.9-10.1 1.4-12.8.4-2.2 2.1-3.8 3.4-5.1l.4-.3c.3-.3.6-.6 1-.9 1.7-1.4 3-3.1 3.9-5.1 2.7-5.3 2.3-9.8 1.5-15.5-.6-4.1-2.5-4.5-4.2-4.5-2 .1-4.2 1.7-5.3 3.9l-.2.5c-1.7 3.4-6.8 13.6-10.7 18.5s-6 8.8-6.4 11.5c-1 7-1.7 14.1-1.9 21.2-.1 5.4 1.8 11.7 2.8 14.3.4 1.1 1 2.3 1.6 3.8 1.6 3.8 3.9 9.1 5.9 15.1 1.8 5.1 2.3 10.6 1.4 16-1.2 5.5-5.7 18.8-5.9 19.4-.1.7-.6 1.1-1.3 1.1z"/><path transform="rotate(-8.529 295.655 467.58)" class="st1" d="M294.2 464.5h2.8v5.9h-2.8z"/><path transform="rotate(-31.943 306.933 464.654)" class="st1" d="M305.5 462.4h2.8v4.6h-2.8z"/><path transform="rotate(-7.851 333.132 464.611)" class="st1" d="M331.8 461.4h2.8v6.5h-2.8z"/><path transform="rotate(-32.77 346.737 462.105)" class="st1" d="M345.3 458.9h2.8v6.4h-2.8z"/><path transform="rotate(-3.651 367.133 451.132) scale(1.00003)" class="st1" d="M365.7 447.7h2.8v6.9h-2.8z"/><path transform="rotate(-29.48 379.415 447.96)" class="st1" d="M378 445h2.8v5.8H378z"/><path class="st1" d="M180.7 428.1l2.4-8.5-2.3-.3c-3.4-.5-5.7-3.6-5.3-7l.8-6c.5-3.3 3.4-5.7 6.8-5.4l31.8 3.2c3.4.3 5.9 3.4 5.6 6.8v.3l-1 6.8c-.5 3.1-3.1 5.3-6.1 5.3h-.8l-20.4-2.6-11.5 7.4zm1.9-24.3c-1.7 0-3.1 1.3-3.4 2.9l-.8 6c-.2 1.8 1 3.5 2.9 3.8l5.5.8-1.2 4.3 6-3.9 21.5 2.7c1.8.2 3.5-1.1 3.8-2.9l1-6.8c.3-1.9-1-3.6-2.9-3.8h-.1l-31.8-3.2-.5.1zm21.1 61.3l-8.2-13-19.2-2.3c-3.5-.4-6-3.6-5.6-7v-.2l.9-5.5c.5-3.4 3.6-5.7 7-5.3l31.6 3.8c3.4.4 5.9 3.5 5.5 7l-.6 5.8c-.4 3.2-3.1 5.6-6.3 5.6h-.8l-2.8-.4-1.5 11.5zm-25.8-30.6c-1.7 0-3.2 1.3-3.5 3l-.9 5.5c-.3 1.9 1 3.7 3 4h.1l20.6 2.4 4.7 7.5.9-6.6 5.6.7c1.9.2 3.7-1.1 3.9-3v-.1l.6-5.8c.2-1.9-1.2-3.6-3.1-3.9l-31.6-3.8-.3.1zm-8.2 60.2l2.6-10.4-1.2-.1c-3.5-.4-6.1-3.5-5.7-7.1v-.2l1-7.4c.5-3.4 3.6-5.9 7-5.5l31.5 3.1c3.5.4 6.1 3.5 5.8 7v.1l-.9 7.6c-.4 3.2-3.1 5.7-6.4 5.7h-.7l-20.1-2.1-12.9 9.3zm3.1-28c-1.8 0-3.3 1.3-3.6 3.1l-1 7.4c-.3 2 1.1 3.8 3.1 4.1h.1l4.4.5-1.5 6.1 7.6-5.5 21.2 2.2c2 .2 3.8-1.2 4-3.2l.9-7.6c.2-2-1.2-3.8-3.2-4h-.1l-31.5-3.1h-.4zm29.1-76.3c.1 1.2-.8 2.2-2 2.3-1.2.1-2.2-.7-2.3-1.9v-.2c-.2-1.2.7-2.3 1.9-2.5h.3c1.2 0 2.1.9 2.2 2 0 .1 0 .2-.1.3z"/></g></svg>